<mxfile host="65bd71144e">
    <diagram id="Q1KYia9DT_-Je5kSYCnM" name="Page-1">
        <mxGraphModel dx="1281" dy="530" grid="1" gridSize="10" guides="1" tooltips="1" connect="1" arrows="1" fold="1" page="1" pageScale="1" pageWidth="1600" pageHeight="1200" math="0" shadow="0">
            <root>
                <mxCell id="0"/>
                <mxCell id="1" parent="0"/>
                <mxCell id="2" value="Index.html" style="whiteSpace=wrap;html=1;rounded=1;arcSize=31;sketch=1;hachureGap=4;jiggle=2;curveFitting=1;fontFamily=Architects Daughter;fontSource=https%3A%2F%2Ffonts.googleapis.com%2Fcss%3Ffamily%3DArchitects%2BDaughter;fontSize=20;" vertex="1" parent="1">
                    <mxGeometry x="40" y="60" width="120" height="90" as="geometry"/>
                </mxCell>
                <mxCell id="3" value="" style="shape=flexArrow;endArrow=classic;html=1;sketch=1;hachureGap=4;jiggle=2;curveFitting=1;fontFamily=Architects Daughter;fontSource=https%3A%2F%2Ffonts.googleapis.com%2Fcss%3Ffamily%3DArchitects%2BDaughter;fontSize=16;" edge="1" parent="1">
                    <mxGeometry width="50" height="50" relative="1" as="geometry">
                        <mxPoint x="99.5" y="150" as="sourcePoint"/>
                        <mxPoint x="99.5" y="250" as="targetPoint"/>
                    </mxGeometry>
                </mxCell>
                <mxCell id="4" value="Real dom" style="whiteSpace=wrap;html=1;rounded=1;arcSize=31;sketch=1;hachureGap=4;jiggle=2;curveFitting=1;fontFamily=Architects Daughter;fontSource=https%3A%2F%2Ffonts.googleapis.com%2Fcss%3Ffamily%3DArchitects%2BDaughter;fontSize=20;" vertex="1" parent="1">
                    <mxGeometry x="40" y="250" width="120" height="90" as="geometry"/>
                </mxCell>
                <mxCell id="5" value="" style="shape=flexArrow;endArrow=classic;html=1;sketch=1;hachureGap=4;jiggle=2;curveFitting=1;fontFamily=Architects Daughter;fontSource=https%3A%2F%2Ffonts.googleapis.com%2Fcss%3Ffamily%3DArchitects%2BDaughter;fontSize=16;entryX=0;entryY=0.5;entryDx=0;entryDy=0;" edge="1" parent="1" target="6">
                    <mxGeometry width="50" height="50" relative="1" as="geometry">
                        <mxPoint x="130" y="250" as="sourcePoint"/>
                        <mxPoint x="280" y="80" as="targetPoint"/>
                        <Array as="points">
                            <mxPoint x="160" y="230"/>
                            <mxPoint x="220" y="240"/>
                            <mxPoint x="220" y="128"/>
                        </Array>
                    </mxGeometry>
                </mxCell>
                <mxCell id="6" value="ReactDom" style="rounded=0;whiteSpace=wrap;html=1;sketch=1;hachureGap=4;jiggle=2;curveFitting=1;fontFamily=Architects Daughter;fontSource=https%3A%2F%2Ffonts.googleapis.com%2Fcss%3Ffamily%3DArchitects%2BDaughter;fontSize=20;" vertex="1" parent="1">
                    <mxGeometry x="310" y="110" width="120" height="35" as="geometry"/>
                </mxCell>
                <mxCell id="8" value="" style="shape=flexArrow;endArrow=classic;html=1;sketch=1;hachureGap=4;jiggle=2;curveFitting=1;fontFamily=Architects Daughter;fontSource=https%3A%2F%2Ffonts.googleapis.com%2Fcss%3Ffamily%3DArchitects%2BDaughter;fontSize=16;" edge="1" parent="1">
                    <mxGeometry width="50" height="50" relative="1" as="geometry">
                        <mxPoint x="369.5" y="145" as="sourcePoint"/>
                        <mxPoint x="370" y="230" as="targetPoint"/>
                    </mxGeometry>
                </mxCell>
                <mxCell id="9" value="Virtual Dom" style="whiteSpace=wrap;html=1;rounded=1;arcSize=31;sketch=1;hachureGap=4;jiggle=2;curveFitting=1;fontFamily=Architects Daughter;fontSource=https%3A%2F%2Ffonts.googleapis.com%2Fcss%3Ffamily%3DArchitects%2BDaughter;fontSize=20;" vertex="1" parent="1">
                    <mxGeometry x="310" y="240" width="120" height="90" as="geometry"/>
                </mxCell>
                <mxCell id="10" value="React Code" style="whiteSpace=wrap;html=1;rounded=1;arcSize=31;sketch=1;hachureGap=4;jiggle=2;curveFitting=1;fontFamily=Architects Daughter;fontSource=https%3A%2F%2Ffonts.googleapis.com%2Fcss%3Ffamily%3DArchitects%2BDaughter;fontSize=20;" vertex="1" parent="1">
                    <mxGeometry x="600" y="230" width="120" height="90" as="geometry"/>
                </mxCell>
                <mxCell id="24" value="Copy" style="text;html=1;strokeColor=none;fillColor=none;align=center;verticalAlign=middle;whiteSpace=wrap;rounded=0;sketch=1;hachureGap=4;jiggle=2;curveFitting=1;fontFamily=Architects Daughter;fontSource=https%3A%2F%2Ffonts.googleapis.com%2Fcss%3Ffamily%3DArchitects%2BDaughter;fontSize=20;" vertex="1" parent="1">
                    <mxGeometry x="300" y="160" width="60" height="30" as="geometry"/>
                </mxCell>
                <mxCell id="28" value="Diffing Algorithm" style="text;html=1;strokeColor=none;fillColor=none;align=center;verticalAlign=middle;whiteSpace=wrap;rounded=0;sketch=1;hachureGap=4;jiggle=2;curveFitting=1;fontFamily=Architects Daughter;fontSource=https%3A%2F%2Ffonts.googleapis.com%2Fcss%3Ffamily%3DArchitects%2BDaughter;fontSize=20;" vertex="1" parent="1">
                    <mxGeometry x="190" y="260" width="110" height="20" as="geometry"/>
                </mxCell>
            </root>
        </mxGraphModel>
    </diagram>
</mxfile>